<svg width="200" height="200" viewBox="0 0 200 200" fill="none" xmlns="http://www.w3.org/2000/svg">
<path d="M23.8996 49.4802H39.8996H65.0996L95.6996 49.4802H126.9C136.9 49.4802 146.1 49.4469 154.5 49.3802C162.9 49.3136 169.433 49.2802 174.1 49.2802C177.3 49.2802 179.966 50.0469 182.1 51.5802C184.233 53.1136 185.666 55.0469 186.4 57.3802C187.133 59.7136 187.133 62.2802 186.4 65.0802C185.666 67.8802 184.1 70.4803 181.7 72.8803C176.633 77.8136 171.333 83.1469 165.8 88.8803C160.266 94.6136 154.7 100.514 149.1 106.58C143.5 112.647 137.9 118.78 132.3 124.98C126.7 131.18 121.3 137.147 116.1 142.88C113.833 145.414 111.033 147.314 107.7 148.58C104.366 149.847 100.9 150.414 97.2996 150.28C93.6996 150.147 90.1663 149.38 86.6996 147.98C83.2329 146.58 80.2996 144.48 77.8996 141.68C73.3663 136.48 68.7996 131.314 64.1996 126.18C59.5996 121.047 54.8663 115.78 49.9996 110.38C45.1329 104.98 40.0329 99.3136 34.6996 93.3803C29.3663 87.4469 23.6996 81.1469 17.6996 74.4802C15.0329 71.5469 13.2663 68.5802 12.3996 65.5802C11.5329 62.5802 11.3996 59.8802 11.9996 57.4802C12.5996 55.0802 13.9329 53.1469 15.9996 51.6802C18.0663 50.2136 20.6996 49.4802 23.8996 49.4802V49.4802Z" fill="black"/>
</svg>
