<svg width="200" height="200" viewBox="0 0 200 200" fill="none" xmlns="http://www.w3.org/2000/svg">
<path d="M149.6 24.4V40.4V65.6V96.2V127.4C149.6 137.4 149.633 146.6 149.7 155C149.767 163.4 149.8 169.933 149.8 174.6C149.8 177.8 149.033 180.467 147.5 182.6C145.967 184.733 144.033 186.167 141.7 186.9C139.367 187.633 136.8 187.633 134 186.9C131.2 186.167 128.6 184.6 126.2 182.2C121.267 177.133 115.933 171.833 110.2 166.3C104.467 160.767 98.5667 155.2 92.5 149.6C86.4333 144 80.3 138.4 74.1 132.8C67.9 127.2 61.9333 121.8 56.2 116.6C53.6667 114.333 51.7667 111.533 50.5 108.2C49.2333 104.867 48.6667 101.4 48.8 97.8C48.9333 94.2 49.7 90.6667 51.1 87.2C52.5 83.7334 54.6 80.8 57.4 78.4C62.6 73.8667 67.7667 69.3 72.9 64.7C78.0333 60.1 83.3 55.3667 88.7 50.5C94.1 45.6333 99.7667 40.5334 105.7 35.2C111.633 29.8667 117.933 24.2 124.6 18.2C127.533 15.5334 130.5 13.7667 133.5 12.9C136.5 12.0334 139.2 11.9 141.6 12.5C144 13.1 145.933 14.4334 147.4 16.5C148.867 18.5667 149.6 21.2 149.6 24.4V24.4Z" fill="black"/>
</svg>
