<svg width="415" height="241" viewBox="0 0 415 241" fill="none" xmlns="http://www.w3.org/2000/svg">
<path d="M168.142 128.529C172.895 136.993 205.135 144.427 228.512 144.084C201.882 146.487 174.985 144.785 149.004 139.051C127.798 134.837 107.351 128.024 88.2484 118.807C87.1955 118.122 85.9532 117.705 84.6543 117.6C83.3555 117.495 82.0491 117.706 80.8748 118.211C79.7006 118.716 78.7026 119.496 77.9878 120.468C77.273 121.439 76.8681 122.565 76.8166 123.725C76.705 126.688 77.4933 129.622 79.0984 132.219C80.7035 134.815 83.0659 136.978 85.9363 138.479C110.68 150.683 137.707 158.783 165.702 162.383C169.688 162.772 173.493 164.072 176.748 166.158C178.161 167.988 173.023 168.674 165.06 167.644C134.805 163.888 105.686 154.831 79.3856 140.996C73.7339 138.251 68.7245 140.309 68.0822 145.685C68.0495 148.635 68.8715 151.542 70.469 154.127C72.0665 156.711 74.3855 158.885 77.202 160.439C106.932 175.142 139.542 184.652 173.28 188.46C177.839 188.702 182.256 189.961 186.125 192.12C187.666 194.065 180.987 195.666 170.84 195.094C144.028 192.371 117.951 185.521 93.7716 174.85C92.653 174.233 91.3731 173.885 90.0579 173.842C88.7427 173.799 87.4375 174.061 86.2709 174.604C85.1043 175.146 84.1165 175.95 83.4047 176.936C82.6929 177.921 82.2816 179.055 82.2114 180.225C81.9749 183.148 82.6841 186.069 84.2549 188.643C85.8257 191.218 88.1922 193.337 91.0742 194.751C119.899 207.712 151.438 215.19 183.684 216.71C187.667 216.943 191.516 218.086 194.859 220.027C196.529 221.971 188.822 223.573 178.161 223.23C162.623 222.003 147.262 219.398 132.306 215.452C131.209 215.076 130.029 214.932 128.859 215.032C127.689 215.131 126.561 215.472 125.564 216.027C124.567 216.581 123.729 217.335 123.116 218.228C122.502 219.12 122.131 220.128 122.03 221.171C121.886 223.52 122.63 225.844 124.144 227.772C125.657 229.7 127.852 231.121 130.379 231.808C146.091 236.205 162.278 239.119 178.675 240.5C199.997 242.33 263.964 241.301 300.314 198.754C317.648 176.507 328.466 150.755 331.783 123.84L181.372 119.722C170.069 119.493 163.775 120.866 168.142 128.529V128.529Z" fill="#3FCFDC" fill-opacity="0.78"/>
<path d="M240.468 112.283C235.715 103.82 203.347 96.3854 180.098 96.6141C206.686 94.2075 233.541 95.91 259.478 101.647C280.753 105.83 301.253 112.684 320.362 122.005C326.013 124.521 331.151 122.005 331.665 116.972C331.819 114.004 331.049 111.055 329.44 108.451C327.831 105.848 325.445 103.691 322.545 102.218C297.825 90.0837 270.846 82.0245 242.908 78.4288C238.885 78.0967 235.053 76.7475 231.862 74.5402C230.449 72.7102 235.459 72.1383 243.551 73.0533C273.775 76.9221 302.869 85.972 329.225 99.7022C330.221 100.444 331.435 100.917 332.723 101.064C334.011 101.212 335.319 101.029 336.494 100.536C337.669 100.043 338.661 99.2607 339.353 98.2822C340.045 97.3036 340.408 96.1693 340.4 95.0129C340.487 92.0829 339.702 89.1844 338.122 86.6128C336.543 84.0412 334.226 81.8882 331.408 80.3732C301.66 65.436 268.947 55.7653 235.073 51.8943C230.531 51.6637 226.121 50.4464 222.229 48.3488C220.559 46.2901 227.366 44.6889 237.514 45.2607C264.326 47.9839 290.403 54.8337 314.582 65.5047C315.692 66.1592 316.979 66.5367 318.309 66.598C319.638 66.6594 320.962 66.4022 322.143 65.8534C323.323 65.3046 324.316 64.4841 325.02 63.4774C325.723 62.4707 326.111 61.3145 326.142 60.1292C326.263 57.2984 325.513 54.4919 323.974 52.0127C322.435 49.5335 320.164 47.4757 317.408 46.0613C288.744 33.2926 257.442 25.8964 225.44 24.3305C221.423 24.0677 217.541 22.9286 214.136 21.0137C212.467 19.0693 220.302 17.4681 230.834 17.8112C246.472 19.0028 261.927 21.6478 276.947 25.703C278.045 26.0553 279.218 26.1811 280.378 26.0709C281.538 25.9606 282.655 25.6172 283.645 25.0665C284.634 24.5158 285.471 23.7723 286.09 22.8919C286.71 22.0115 287.097 21.0173 287.223 19.9843C287.373 17.6205 286.634 15.2795 285.122 13.3321C283.609 11.3847 281.41 9.9423 278.874 9.23327C262.944 4.78391 246.547 1.79471 229.935 0.312186C208.613 -1.06029 145.16 0.312187 108.296 42.6301C90.9793 64.8533 80.1226 90.5537 76.6984 117.43L227.238 120.976C238.541 121.204 244.835 119.832 240.468 112.283V112.283Z" fill="#462EDC" fill-opacity="0.71"/>
<path d="M71.8459 169.437H98.7988L66.6475 80.9408H32.4338L0 169.437H26.4443L32.6881 150.82H65.7434L71.8459 169.437ZM39.4121 130.417L48.5659 102.732H50.0916L59.1323 130.417H39.4121ZM131.854 147.646V80.9408H106.54V169.437H164.514V147.646H131.854ZM218.42 170.712C229.24 170.712 241.813 168.672 248.565 166.632V115.483H212.317V136.679H225.285V149.544C223.392 149.686 223.138 149.686 219.719 149.686C203.926 149.686 201.383 143.679 201.383 125.175C201.383 107.464 206.102 101.088 220.849 101.088C227.573 101.088 235.71 102.25 242.83 104.659V82.6127C237.631 80.9408 227.206 79.6656 218.674 79.6656C190.845 79.6656 173.413 91.0004 173.413 125.175C173.413 162.296 190.082 170.712 218.42 170.712ZM289.87 147.646V135.121H319.507V114.095H289.87V102.874H322.163V80.9408H264.584V169.437H322.925V147.646H289.87ZM415 169.437L391.353 137.048C402.032 133.109 406.722 124.806 406.722 110.525C406.722 89.4986 395.026 80.9408 372.537 80.9408H336.656V169.437H361.97V139.74H366.914L385.109 169.437H415ZM361.97 100.323H368.073C378.357 100.323 381.803 102.364 381.803 110.525C381.803 118.827 378.357 121.604 368.073 121.604H361.97V100.323Z" fill="#333333"/>
</svg>
