<svg width="200" height="200" viewBox="0 0 200 200" fill="none" xmlns="http://www.w3.org/2000/svg">
<path d="M48.981 175.182V159.182V133.982L48.981 103.382V72.1818C48.981 62.1818 48.9476 52.9818 48.881 44.5818C48.8143 36.1818 48.781 29.6484 48.781 24.9818C48.781 21.7818 49.5476 19.1151 51.081 16.9818C52.6143 14.8484 54.5476 13.4151 56.881 12.6818C59.2143 11.9484 61.781 11.9484 64.581 12.6818C67.381 13.4151 69.981 14.9818 72.381 17.3818C77.3143 22.4484 82.6476 27.7484 88.381 33.2818C94.1143 38.8151 100.014 44.3818 106.081 49.9818C112.148 55.5818 118.281 61.1818 124.481 66.7818C130.681 72.3818 136.648 77.7818 142.381 82.9818C144.914 85.2484 146.814 88.0484 148.081 91.3818C149.348 94.7151 149.914 98.1818 149.781 101.782C149.648 105.382 148.881 108.915 147.481 112.382C146.081 115.848 143.981 118.782 141.181 121.182C135.981 125.715 130.814 130.282 125.681 134.882C120.548 139.482 115.281 144.215 109.881 149.082C104.481 153.948 98.8143 159.048 92.881 164.382C86.9476 169.715 80.6476 175.382 73.981 181.382C71.0476 184.048 68.081 185.815 65.081 186.682C62.081 187.548 59.381 187.682 56.981 187.082C54.581 186.482 52.6476 185.148 51.181 183.082C49.7143 181.015 48.981 178.382 48.981 175.182V175.182Z" fill="black"/>
</svg>
