<svg width="200" height="200" viewBox="0 0 200 200" fill="none" xmlns="http://www.w3.org/2000/svg">
<path d="M174.681 150.101H158.681H133.481H102.881H71.6812C61.6812 150.101 52.4812 150.134 44.0812 150.201C35.6812 150.267 29.1479 150.301 24.4812 150.301C21.2812 150.301 18.6145 149.534 16.4812 148.001C14.3479 146.467 12.9146 144.534 12.1812 142.201C11.4479 139.867 11.4479 137.301 12.1812 134.501C12.9146 131.701 14.4812 129.101 16.8812 126.701C21.9479 121.767 27.2479 116.434 32.7812 110.701C38.3145 104.967 43.8812 99.0674 49.4812 93.0008C55.0812 86.9341 60.6812 80.8008 66.2812 74.6008C71.8812 68.4008 77.2812 62.4341 82.4812 56.7008C84.7479 54.1674 87.5479 52.2675 90.8812 51.0008C94.2145 49.7341 97.6812 49.1675 101.281 49.3008C104.881 49.4341 108.415 50.2008 111.881 51.6008C115.348 53.0008 118.281 55.1008 120.681 57.9008C125.215 63.1008 129.781 68.2674 134.381 73.4008C138.981 78.5341 143.715 83.8008 148.581 89.2008C153.448 94.6008 158.548 100.267 163.881 106.201C169.215 112.134 174.881 118.434 180.881 125.101C183.548 128.034 185.315 131.001 186.181 134.001C187.048 137.001 187.181 139.701 186.581 142.101C185.981 144.501 184.648 146.434 182.581 147.901C180.515 149.367 177.881 150.101 174.681 150.101V150.101Z" fill="black"/>
</svg>
